<svg width="254.439" xmlns="http://www.w3.org/2000/svg" height="170.824" id="screenshot-cce64cf6-7108-8002-8007-f410385e0a45" viewBox="0 0 254.439 170.824" xmlns:xlink="http://www.w3.org/1999/xlink" fill="none" version="1.1"><g id="shape-cce64cf6-7108-8002-8007-f410385e0a45" rx="0" ry="0"><g id="shape-cce64cf6-7108-8002-8007-f410385e0a46" rx="0" ry="0"><g id="shape-cce64cf6-7108-8002-8007-f410385e0a4b"><g class="fills" id="fills-cce64cf6-7108-8002-8007-f410385e0a4b"><path d="M133.4394073486328,-0.000003827377440757118L35.43933868408203,89.9999771118164L59.43933868408203,89.9999771118164L59.43933868408203,119.00000762939453C59.43933868408203,119.00000762939453,-13.560660362243652,117.00000762939453,72.43939971923828,38.999996185302734C72.43939971923828,38.999996185302734,-2.560659885406494,86.9999771118164,21.439340591430664,123.00000762939453C45.43933868408203,159.00001525878906,145.4394073486328,94.9999771118164,145.4394073486328,94.9999771118164C145.4394073486328,94.9999771118164,91.23242950439453,118.93891143798828,82.43939971923828,99.9999771118164C69.43933868408203,71.9999771118164,133.4394073486328,27.999996185302734,133.4394073486328,27.999996185302734L180.4394073486328,67.9999771118164L196.4394073486328,53.999996185302734L189.4394073486328,46.999996185302734L189.4394073486328,15.999996185302734L168.4156036376953,15.999996185302734L168.4156036376953,30.03738021850586L133.4394073486328,-0.000003827377440757118" style="fill: rgb(189, 189, 189); fill-opacity: 1;"/></g></g><g id="shape-cce64cf6-7108-8002-8007-f410385e0a4c"><g class="fills" id="fills-cce64cf6-7108-8002-8007-f410385e0a4c"><path d="M133.4394073486328,-0.000003827377440757118L35.43933868408203,89.9999771118164L59.43933868408203,89.9999771118164C59.43933868408203,89.9999771118164,59.43933868408203,117.00000762939453,59.43933868408203,119.00000762939453C37.43933868408203,127.00000762939453,-4.560659885406494,98.9999771118164,72.43939971923828,38.999996185302734C72.43939971923828,38.999996185302734,-3.522146701812744,88.33121490478516,21.439340591430664,123.00000762939453C39.43933868408203,148.00001525878906,90.43939971923828,123.00000762939453,90.43939971923828,123.00000762939453C90.43939971923828,123.00000762939453,84.43939971923828,123.00000762939453,76.43939971923828,117.00000762939453C34.19806671142578,85.31916046142578,133.4394073486328,13.999996185302734,133.4394073486328,13.999996185302734L188.4394073486328,60.99998092651367L196.4394073486328,53.999996185302734L189.4394073486328,46.999996185302734L189.4394073486328,15.999996185302734L168.4156036376953,15.999996185302734L168.4156036376953,30.03738021850586L133.4394073486328,-0.000003827377440757118" style="fill: rgb(255, 255, 255); fill-opacity: 1;"/></g></g></g><g id="shape-cce64cf6-7108-8002-8007-f410385e0a47" rx="0" ry="0"><g id="shape-cce64cf6-7108-8002-8007-f410385e0a4d"><g class="fills" id="fills-cce64cf6-7108-8002-8007-f410385e0a4d"><path d="M133.4394073486328,42.999996185302734L96.43939971923828,68.9999771118164L133.4394073486328,33.999996185302734M133.4394073486328,42.999996185302734L170.4394073486328,68.9999771118164L133.4394073486328,33.999996185302734L133.4394073486328,42.999996185302734" style="fill: rgb(255, 255, 255); fill-opacity: 1;"/></g></g><g id="shape-cce64cf6-7108-8002-8007-f410385e0a4e"><g class="fills" id="fills-cce64cf6-7108-8002-8007-f410385e0a4e"><path d="M133.4394073486328,45.228572845458984L96.43939971923828,68.9999771118164L133.4394073486328,36.999996185302734M133.4394073486328,45.228572845458984L170.4394073486328,68.9999771118164L133.4394073486328,36.999996185302734L133.4394073486328,45.228572845458984" style="fill: rgb(189, 189, 189); fill-opacity: 1;"/></g></g></g><g id="shape-cce64cf6-7108-8002-8007-f410385e0a48" rx="0" ry="0"><g id="shape-cce64cf6-7108-8002-8007-f410385e0a53"><g class="fills" id="fills-cce64cf6-7108-8002-8007-f410385e0a53"><path d="M135.4394073486328,59.99998092651367L135.4394073486328,73.9999771118164L147.4171905517578,73.9999771118164C147.4171905517578,73.9999771118164,148.5060577392578,59.99998092651367,135.4394073486328,59.99998092651367" style="fill: rgb(189, 189, 189); fill-opacity: 1;"/></g><g id="strokes-dc20b528-8408-8080-8007-f412720fd2fd-cce64cf6-7108-8002-8007-f410385e0a53" class="strokes"><g class="inner-stroke-shape"><defs><clipPath id="inner-stroke-render-9-cce64cf6-7108-8002-8007-f410385e0a53-0"><use href="#stroke-shape-render-9-cce64cf6-7108-8002-8007-f410385e0a53-0"/></clipPath><path d="M135.4394073486328,59.99998092651367L135.4394073486328,73.9999771118164L147.4171905517578,73.9999771118164C147.4171905517578,73.9999771118164,148.5060577392578,59.99998092651367,135.4394073486328,59.99998092651367" id="stroke-shape-render-9-cce64cf6-7108-8002-8007-f410385e0a53-0" style="fill: none; stroke-width: 2; stroke: rgb(255, 255, 255); stroke-opacity: 1;"/></defs><use href="#stroke-shape-render-9-cce64cf6-7108-8002-8007-f410385e0a53-0" clip-path="url('#inner-stroke-render-9-cce64cf6-7108-8002-8007-f410385e0a53-0')"/></g></g></g><g id="shape-cce64cf6-7108-8002-8007-f410385e0a54"><g class="fills" id="fills-cce64cf6-7108-8002-8007-f410385e0a54"><path d="M131.4394073486328,59.99998092651367L131.4394073486328,73.9999771118164L119.46161651611328,73.9999771118164C119.46161651611328,73.9999771118164,118.37268829345703,59.99998092651367,131.4394073486328,59.99998092651367" style="fill: rgb(189, 189, 189); fill-opacity: 1;"/></g><g id="strokes-dc20b528-8408-8080-8007-f4127210e931-cce64cf6-7108-8002-8007-f410385e0a54" class="strokes"><g class="inner-stroke-shape"><defs><clipPath id="inner-stroke-render-10-cce64cf6-7108-8002-8007-f410385e0a54-0"><use href="#stroke-shape-render-10-cce64cf6-7108-8002-8007-f410385e0a54-0"/></clipPath><path d="M131.4394073486328,59.99998092651367L131.4394073486328,73.9999771118164L119.46161651611328,73.9999771118164C119.46161651611328,73.9999771118164,118.37268829345703,59.99998092651367,131.4394073486328,59.99998092651367" id="stroke-shape-render-10-cce64cf6-7108-8002-8007-f410385e0a54-0" style="fill: none; stroke-width: 2; stroke: rgb(255, 255, 255); stroke-opacity: 1;"/></defs><use href="#stroke-shape-render-10-cce64cf6-7108-8002-8007-f410385e0a54-0" clip-path="url('#inner-stroke-render-10-cce64cf6-7108-8002-8007-f410385e0a54-0')"/></g></g></g><g id="shape-cce64cf6-7108-8002-8007-f410385e0a55"><g class="fills" id="fills-cce64cf6-7108-8002-8007-f410385e0a55"><rect rx="0" ry="0" x="135.43934911242604" y="77" transform="matrix(1.000000, 0.000000, 0.000000, 1.000000, 0.000000, 0.000000)" width="12" height="11.999999999999972" style="fill: rgb(189, 189, 189); fill-opacity: 1;"/></g><g id="strokes-dc20b528-8408-8080-8007-f412721146d1-cce64cf6-7108-8002-8007-f410385e0a55" class="strokes"><g class="inner-stroke-shape" transform="matrix(1.000000, 0.000000, 0.000000, 1.000000, 0.000000, 0.000000)"><defs><clipPath id="inner-stroke-render-11-cce64cf6-7108-8002-8007-f410385e0a55-0"><use href="#stroke-shape-render-11-cce64cf6-7108-8002-8007-f410385e0a55-0"/></clipPath><rect rx="0" ry="0" x="135.43934911242604" y="77" width="12" height="11.999999999999972" id="stroke-shape-render-11-cce64cf6-7108-8002-8007-f410385e0a55-0" style="fill: none; stroke-width: 2; stroke: rgb(255, 255, 255); stroke-opacity: 1;"/></defs><use href="#stroke-shape-render-11-cce64cf6-7108-8002-8007-f410385e0a55-0" clip-path="url('#inner-stroke-render-11-cce64cf6-7108-8002-8007-f410385e0a55-0')"/></g></g></g><g id="shape-cce64cf6-7108-8002-8007-f410385e0a56"><g class="fills" id="fills-cce64cf6-7108-8002-8007-f410385e0a56"><rect rx="0" ry="0" x="119.43934911242604" y="77" transform="matrix(1.000000, 0.000000, 0.000000, 1.000000, 0.000000, 0.000000)" width="12" height="11.999999999999972" style="fill: rgb(189, 189, 189); fill-opacity: 1;"/></g><g id="strokes-dc20b528-8408-8080-8007-f4127211f389-cce64cf6-7108-8002-8007-f410385e0a56" class="strokes"><g class="inner-stroke-shape" transform="matrix(1.000000, 0.000000, 0.000000, 1.000000, 0.000000, 0.000000)"><defs><clipPath id="inner-stroke-render-12-cce64cf6-7108-8002-8007-f410385e0a56-0"><use href="#stroke-shape-render-12-cce64cf6-7108-8002-8007-f410385e0a56-0"/></clipPath><rect rx="0" ry="0" x="119.43934911242604" y="77" width="12" height="11.999999999999972" id="stroke-shape-render-12-cce64cf6-7108-8002-8007-f410385e0a56-0" style="fill: none; stroke-width: 2; stroke: rgb(255, 255, 255); stroke-opacity: 1;"/></defs><use href="#stroke-shape-render-12-cce64cf6-7108-8002-8007-f410385e0a56-0" clip-path="url('#inner-stroke-render-12-cce64cf6-7108-8002-8007-f410385e0a56-0')"/></g></g></g></g><g id="shape-cce64cf6-7108-8002-8007-f410385e0a49" rx="0" ry="0"><g id="shape-cce64cf6-7108-8002-8007-f410385e0a57"><g class="fills" id="fills-cce64cf6-7108-8002-8007-f410385e0a57"><path d="M209.4394073486328,69.9999771118164L232.4394073486328,91.9999771118164L208.4185333251953,91.9999771118164L208.4185333251953,139.01109313964844C208.4185333251953,139.01109313964844,209.4671173095703,160.00001525878906,191.4394073486328,160.00001525878906C173.4115753173828,160.00001525878906,139.4394073486328,160.00001525878906,139.4394073486328,160.00001525878906C139.4394073486328,160.00001525878906,187.4394073486328,131.00001525878906,190.4394073486328,91.9999771118164L167.4394073486328,91.9999771118164L209.4394073486328,69.9999771118164" style="fill: rgb(255, 255, 255); fill-opacity: 1;"/></g></g><g id="shape-cce64cf6-7108-8002-8007-f410385e0a58"><g class="fills" id="fills-cce64cf6-7108-8002-8007-f410385e0a58"><path d="M254.4394073486328,16.999996185302734L201.4394073486328,31.999996185302734L214.4394073486328,42.999996185302734C214.4394073486328,42.999996185302734,77.43939971923828,175.00001525878906,19.439340591430664,132.00001525878906C-0.40099194645881653,117.29077911376953,20.439340591430664,78.9999771118164,30.439340591430664,65.9999771118164C30.439340591430664,65.9999771118164,-26.560659408569336,125.00000762939453,15.439339637756348,151.00001525878906C55.41083526611328,175.74427795410156,140.4394073486328,141.00001525878906,233.4394073486328,58.99998092651367C235.5608673095703,57.1294059753418,246.4394073486328,73.9999771118164,246.4394073486328,73.9999771118164L254.4394073486328,16.999996185302734" style="fill: rgb(189, 189, 189); fill-opacity: 1;"/></g></g><g id="shape-cce64cf6-7108-8002-8007-f410385e0a59"><g class="fills" id="fills-cce64cf6-7108-8002-8007-f410385e0a59"><path d="M254.4394073486328,16.999996185302734L201.4394073486328,31.999996185302734L214.4394073486328,42.999996185302734C214.4394073486328,42.999996185302734,77.43939971923828,175.00001525878906,19.439340591430664,132.00001525878906C-0.40099194645881653,117.29077911376953,20.439340591430664,78.9999771118164,30.439340591430664,65.9999771118164C30.439340591430664,65.9999771118164,-14.377921104431152,120.21942901611328,19.439340591430664,142.00001525878906C78.43939971923828,180.00001525878906,205.4394073486328,68.9999771118164,205.4394073486328,68.9999771118164L254.4394073486328,16.999996185302734" style="fill: rgb(255, 255, 255); fill-opacity: 1;"/></g></g></g><g id="shape-cce64cf6-7108-8002-8007-f410385e0a4a" rx="0" ry="0"><g id="shape-cce64cf6-7108-8002-8007-f410385e0a5a"><g class="fills" id="fills-cce64cf6-7108-8002-8007-f410385e0a5a"><path d="M174.4394073486328,114.00000762939453C174.4394073486328,114.00000762939453,155.3596954345703,135.8740692138672,105.43939971923828,153.00001525878906C64.02631378173828,167.20741271972656,39.43933868408203,163.00001525878906,39.43933868408203,163.00001525878906C39.43933868408203,163.00001525878906,68.09595489501953,179.1835174560547,109.43939971923828,165.00001525878906C159.42933654785156,147.8501739501953,174.4394073486328,114.00000762939453,174.4394073486328,114.00000762939453" style="fill: rgb(189, 189, 189); fill-opacity: 1;"/></g></g><g id="shape-cce64cf6-7108-8002-8007-f410385e0a5b"><g class="fills" id="fills-cce64cf6-7108-8002-8007-f410385e0a5b"><path d="M174.4394073486328,114.00000762939453C174.4394073486328,114.00000762939453,155.3596954345703,135.8740692138672,105.43939971923828,153.00001525878906C64.02631378173828,167.20741271972656,39.43933868408203,163.00001525878906,39.43933868408203,163.00001525878906C39.43933868408203,163.00001525878906,67.09595489501953,175.1835174560547,108.43939971923828,161.00001525878906C158.42933654785156,143.8501739501953,174.4394073486328,114.00000762939453,174.4394073486328,114.00000762939453" style="fill: rgb(255, 255, 255); fill-opacity: 1;"/></g></g></g></g></svg>