<svg width="254.439" xmlns="http://www.w3.org/2000/svg" height="170.824" id="screenshot-cce64cf6-7108-8002-8007-f40da3b121c3" viewBox="0 0 254.439 170.824" xmlns:xlink="http://www.w3.org/1999/xlink" fill="none" version="1.1"><g id="shape-cce64cf6-7108-8002-8007-f40da3b121c3" rx="0" ry="0"><g id="shape-cce64cf6-7108-8002-8007-f40c1645a38f" rx="0" ry="0"><g id="shape-cce64cf6-7108-8002-8007-f3ff5b947256"><g class="fills" id="fills-cce64cf6-7108-8002-8007-f3ff5b947256"><path d="M133.4393768310547,-0.000003827377440757118L35.43933868408203,89.9999771118164L59.43933868408203,89.9999771118164L59.43933868408203,119.00000762939453C59.43933868408203,119.00000762939453,-13.560660362243652,117.00000762939453,72.43936920166016,38.999996185302734C72.43936920166016,38.999996185302734,-2.560659885406494,86.9999771118164,21.439340591430664,123.00000762939453C45.439353942871094,159.00001525878906,145.4393768310547,94.9999771118164,145.4393768310547,94.9999771118164C145.4393768310547,94.9999771118164,91.23242950439453,118.93891143798828,82.43936920166016,99.9999771118164C69.4393539428711,71.9999771118164,133.4393768310547,27.999996185302734,133.4393768310547,27.999996185302734L180.4393768310547,67.9999771118164L196.4393768310547,53.999996185302734L189.4393768310547,46.999996185302734L189.4393768310547,15.999996185302734L168.4155731201172,15.999996185302734L168.4155731201172,30.03738021850586L133.4393768310547,-0.000003827377440757118" style="fill: rgb(5, 23, 76); fill-opacity: 1;"/></g></g><g id="shape-cce64cf6-7108-8002-8007-f401988247c0"><g class="fills" id="fills-cce64cf6-7108-8002-8007-f401988247c0"><path d="M133.4393768310547,-0.000003827377440757118L35.43933868408203,89.9999771118164L59.43933868408203,89.9999771118164C59.43933868408203,89.9999771118164,59.43933868408203,117.00000762939453,59.43933868408203,119.00000762939453C37.43933868408203,127.00000762939453,-4.560659885406494,98.9999771118164,72.43936920166016,38.999996185302734C72.43936920166016,38.999996185302734,-3.5221619606018066,88.33121490478516,21.439340591430664,123.00000762939453C39.43933868408203,148.00001525878906,90.43936920166016,123.00000762939453,90.43936920166016,123.00000762939453C90.43936920166016,123.00000762939453,84.43936920166016,123.00000762939453,76.43936920166016,117.00000762939453C34.19805145263672,85.31916046142578,133.4393768310547,13.999996185302734,133.4393768310547,13.999996185302734L188.4393768310547,60.99998092651367L196.4393768310547,53.999996185302734L189.4393768310547,46.999996185302734L189.4393768310547,15.999996185302734L168.4155731201172,15.999996185302734L168.4155731201172,30.03738021850586L133.4393768310547,-0.000003827377440757118" style="fill: rgb(37, 68, 113); fill-opacity: 1;"/></g></g></g><g id="shape-cce64cf6-7108-8002-8007-f40623ddf63e" rx="0" ry="0"><g id="shape-cce64cf6-7108-8002-8007-f4045ef9f0cd"><g class="fills" id="fills-cce64cf6-7108-8002-8007-f4045ef9f0cd"><path d="M133.4393768310547,42.999996185302734L96.43936920166016,68.9999771118164L133.4393768310547,33.999996185302734M133.4393768310547,42.999996185302734L170.4393768310547,68.9999771118164L133.4393768310547,33.999996185302734L133.4393768310547,42.999996185302734" style="fill: rgb(5, 23, 76); fill-opacity: 1;"/></g></g><g id="shape-cce64cf6-7108-8002-8007-f404a14bdca6"><g class="fills" id="fills-cce64cf6-7108-8002-8007-f404a14bdca6"><path d="M133.4393768310547,36.999996185302734L133.4393768310547,45.228572845458984L96.43936920166016,68.9999771118164L133.4393768310547,36.999996185302734L170.4393768310547,68.9999771118164L133.4393768310547,45.228572845458984" style="fill: rgb(37, 68, 113); fill-opacity: 1;"/></g></g></g><g id="shape-cce64cf6-7108-8002-8007-f40615bcd052" rx="0" ry="0"><g id="shape-cce64cf6-7108-8002-8007-f405427e7ed7"><g class="fills" id="fills-cce64cf6-7108-8002-8007-f405427e7ed7"><path d="M135.4393768310547,59.99998092651367L135.4393768310547,73.9999771118164L147.4171600341797,73.9999771118164C147.4171600341797,73.9999771118164,148.5060577392578,59.99998092651367,135.4393768310547,59.99998092651367" style="fill: rgb(37, 68, 113); fill-opacity: 1;"/></g><g id="strokes-62ed0f86-e83b-8095-8007-f40f46d96e8c-cce64cf6-7108-8002-8007-f405427e7ed7" class="strokes"><g class="inner-stroke-shape"><defs><clipPath id="inner-stroke-render-9-cce64cf6-7108-8002-8007-f405427e7ed7-0"><use href="#stroke-shape-render-9-cce64cf6-7108-8002-8007-f405427e7ed7-0"/></clipPath><path d="M135.4393768310547,59.99998092651367L135.4393768310547,73.9999771118164L147.4171600341797,73.9999771118164C147.4171600341797,73.9999771118164,148.5060577392578,59.99998092651367,135.4393768310547,59.99998092651367" id="stroke-shape-render-9-cce64cf6-7108-8002-8007-f405427e7ed7-0" style="fill: none; stroke-width: 2; stroke: rgb(5, 23, 76); stroke-opacity: 1;"/></defs><use href="#stroke-shape-render-9-cce64cf6-7108-8002-8007-f405427e7ed7-0" clip-path="url('#inner-stroke-render-9-cce64cf6-7108-8002-8007-f405427e7ed7-0')"/></g></g></g><g id="shape-cce64cf6-7108-8002-8007-f405c837a751"><g class="fills" id="fills-cce64cf6-7108-8002-8007-f405c837a751"><path d="M131.4393768310547,59.99998092651367L131.4393768310547,73.9999771118164L119.46158599853516,73.9999771118164C119.46158599853516,73.9999771118164,118.37268829345703,59.99998092651367,131.4393768310547,59.99998092651367" style="fill: rgb(37, 68, 113); fill-opacity: 1;"/></g><g id="strokes-62ed0f86-e83b-8095-8007-f40f46da5ef8-cce64cf6-7108-8002-8007-f405c837a751" class="strokes"><g class="inner-stroke-shape"><defs><clipPath id="inner-stroke-render-10-cce64cf6-7108-8002-8007-f405c837a751-0"><use href="#stroke-shape-render-10-cce64cf6-7108-8002-8007-f405c837a751-0"/></clipPath><path d="M131.4393768310547,59.99998092651367L131.4393768310547,73.9999771118164L119.46158599853516,73.9999771118164C119.46158599853516,73.9999771118164,118.37268829345703,59.99998092651367,131.4393768310547,59.99998092651367" id="stroke-shape-render-10-cce64cf6-7108-8002-8007-f405c837a751-0" style="fill: none; stroke-width: 2; stroke: rgb(5, 23, 76); stroke-opacity: 1;"/></defs><use href="#stroke-shape-render-10-cce64cf6-7108-8002-8007-f405c837a751-0" clip-path="url('#inner-stroke-render-10-cce64cf6-7108-8002-8007-f405c837a751-0')"/></g></g></g><g id="shape-cce64cf6-7108-8002-8007-f405aa552b98"><g class="fills" id="fills-cce64cf6-7108-8002-8007-f405aa552b98"><rect rx="0" ry="0" x="135.43934911242604" y="77" transform="matrix(1.000000, 0.000000, 0.000000, 1.000000, 0.000000, 0.000000)" width="12" height="11.999999999999972" style="fill: rgb(37, 68, 113); fill-opacity: 1;"/></g><g id="strokes-62ed0f86-e83b-8095-8007-f40f46db1609-cce64cf6-7108-8002-8007-f405aa552b98" class="strokes"><g class="inner-stroke-shape" transform="matrix(1.000000, 0.000000, 0.000000, 1.000000, 0.000000, 0.000000)"><defs><clipPath id="inner-stroke-render-11-cce64cf6-7108-8002-8007-f405aa552b98-0"><use href="#stroke-shape-render-11-cce64cf6-7108-8002-8007-f405aa552b98-0"/></clipPath><rect rx="0" ry="0" x="135.43934911242604" y="77" width="12" height="11.999999999999972" id="stroke-shape-render-11-cce64cf6-7108-8002-8007-f405aa552b98-0" style="fill: none; stroke-width: 2; stroke: rgb(5, 23, 76); stroke-opacity: 1;"/></defs><use href="#stroke-shape-render-11-cce64cf6-7108-8002-8007-f405aa552b98-0" clip-path="url('#inner-stroke-render-11-cce64cf6-7108-8002-8007-f405aa552b98-0')"/></g></g></g><g id="shape-cce64cf6-7108-8002-8007-f405d678b031"><g class="fills" id="fills-cce64cf6-7108-8002-8007-f405d678b031"><rect rx="0" ry="0" x="119.43934911242604" y="77" transform="matrix(1.000000, 0.000000, 0.000000, 1.000000, 0.000000, 0.000000)" width="12" height="11.999999999999972" style="fill: rgb(37, 68, 113); fill-opacity: 1;"/></g><g id="strokes-62ed0f86-e83b-8095-8007-f40f46db4289-cce64cf6-7108-8002-8007-f405d678b031" class="strokes"><g class="inner-stroke-shape" transform="matrix(1.000000, 0.000000, 0.000000, 1.000000, 0.000000, 0.000000)"><defs><clipPath id="inner-stroke-render-12-cce64cf6-7108-8002-8007-f405d678b031-0"><use href="#stroke-shape-render-12-cce64cf6-7108-8002-8007-f405d678b031-0"/></clipPath><rect rx="0" ry="0" x="119.43934911242604" y="77" width="12" height="11.999999999999972" id="stroke-shape-render-12-cce64cf6-7108-8002-8007-f405d678b031-0" style="fill: none; stroke-width: 2; stroke: rgb(5, 23, 76); stroke-opacity: 1;"/></defs><use href="#stroke-shape-render-12-cce64cf6-7108-8002-8007-f405d678b031-0" clip-path="url('#inner-stroke-render-12-cce64cf6-7108-8002-8007-f405d678b031-0')"/></g></g></g></g><g id="shape-cce64cf6-7108-8002-8007-f40c05fa88bc" rx="0" ry="0"><g id="shape-cce64cf6-7108-8002-8007-f40aed18a632"><g class="fills" id="fills-cce64cf6-7108-8002-8007-f40aed18a632"><path d="M209.4393768310547,69.9999771118164L232.4393768310547,91.9999771118164L208.41856384277344,91.9999771118164L208.41856384277344,139.01109313964844C208.41856384277344,139.01109313964844,209.46714782714844,160.00001525878906,191.4393768310547,160.00001525878906C173.41160583496094,160.00001525878906,139.4393768310547,160.00001525878906,139.4393768310547,160.00001525878906C139.4393768310547,160.00001525878906,187.4393768310547,131.00001525878906,190.4393768310547,91.9999771118164L167.4393768310547,91.9999771118164L209.4393768310547,69.9999771118164" style="fill: rgb(220, 119, 33); fill-opacity: 1;"/></g></g><g id="shape-cce64cf6-7108-8002-8007-f4063fbb25de"><g class="fills" id="fills-cce64cf6-7108-8002-8007-f4063fbb25de"><path d="M254.4393768310547,16.999996185302734L201.4393768310547,31.999996185302734L214.4393768310547,42.999996185302734C214.4393768310547,42.999996185302734,77.43936920166016,175.00001525878906,19.439340591430664,132.00001525878906C-0.40099194645881653,117.29077911376953,20.439340591430664,78.9999771118164,30.439340591430664,65.9999771118164C30.439340591430664,65.9999771118164,-26.560659408569336,125.00000762939453,15.439339637756348,151.00001525878906C55.410850524902344,175.74427795410156,140.4393768310547,141.00001525878906,233.4393768310547,58.99998092651367C235.56089782714844,57.1294059753418,246.4393768310547,73.9999771118164,246.4393768310547,73.9999771118164L254.4393768310547,16.999996185302734" style="fill: rgb(183, 87, 26); fill-opacity: 1;"/></g></g><g id="shape-cce64cf6-7108-8002-8007-f40c38324620"><g class="fills" id="fills-cce64cf6-7108-8002-8007-f40c38324620"><path d="M254.4393768310547,16.999996185302734L201.4393768310547,31.999996185302734L214.4393768310547,42.999996185302734C214.4393768310547,42.999996185302734,77.43936920166016,175.00001525878906,19.439340591430664,132.00001525878906C-0.40099194645881653,117.29077911376953,20.439340591430664,78.9999771118164,30.439340591430664,65.9999771118164C30.439340591430664,65.9999771118164,-14.37790584564209,120.21942901611328,19.439340591430664,142.00001525878906C78.43936920166016,180.00001525878906,205.4393768310547,68.9999771118164,205.4393768310547,68.9999771118164L254.4393768310547,16.999996185302734" style="fill: rgb(220, 119, 33); fill-opacity: 1;"/></g></g></g><g id="shape-cce64cf6-7108-8002-8007-f40bfa12fa58" rx="0" ry="0"><g id="shape-cce64cf6-7108-8002-8007-f40a11ccede4"><g class="fills" id="fills-cce64cf6-7108-8002-8007-f40a11ccede4"><path d="M174.4393768310547,114.00000762939453C174.4393768310547,114.00000762939453,155.3596649169922,135.8740692138672,105.43936920166016,153.00001525878906C64.02629852294922,167.20741271972656,39.43933868408203,163.00001525878906,39.43933868408203,163.00001525878906C39.43933868408203,163.00001525878906,68.0959701538086,179.1835174560547,109.43936920166016,165.00001525878906C159.42933654785156,147.8501739501953,174.4393768310547,114.00000762939453,174.4393768310547,114.00000762939453" style="fill: rgb(5, 23, 76); fill-opacity: 1;"/></g></g><g id="shape-cce64cf6-7108-8002-8007-f40a7b1a2ea8"><g class="fills" id="fills-cce64cf6-7108-8002-8007-f40a7b1a2ea8"><path d="M174.4393768310547,114.00000762939453C174.4393768310547,114.00000762939453,155.3596649169922,135.8740692138672,105.43936920166016,153.00001525878906C64.02629852294922,167.20741271972656,39.43933868408203,163.00001525878906,39.43933868408203,163.00001525878906C39.43933868408203,163.00001525878906,67.0959701538086,175.1835174560547,108.43936920166016,161.00001525878906C158.42933654785156,143.8501739501953,174.4393768310547,114.00000762939453,174.4393768310547,114.00000762939453" style="fill: rgb(37, 68, 113); fill-opacity: 1;"/></g></g></g></g></svg>